<svg width="24" height="14" viewBox="0 0 25 15" fill="none" xmlns="http://www.w3.org/2000/svg">
<path fill-rule="evenodd" clip-rule="evenodd" d="M0.547974 7.05005C0.547974 6.49776 0.995689 6.05005 1.54797 6.05005H23.452C24.0043 6.05005 24.452 6.49776 24.452 7.05005C24.452 7.60233 24.0043 8.05005 23.452 8.05005H1.54797C0.995689 8.05005 0.547974 7.60233 0.547974 7.05005Z" fill="black"/>
<path fill-rule="evenodd" clip-rule="evenodd" d="M16.2407 0.399276C16.6001 -0.0200503 17.2314 -0.0686118 17.6507 0.29081L24.6507 6.29081C24.8724 6.48079 25 6.75814 25 7.05007C25 7.34199 24.8724 7.61934 24.6507 7.80932L17.6507 13.8093C17.2314 14.1687 16.6001 14.1202 16.2407 13.7009C15.8813 13.2815 15.9298 12.6502 16.3492 12.2908L22.4634 7.05007L16.3492 1.80932C15.9298 1.4499 15.8813 0.818601 16.2407 0.399276Z" fill="black"/>
</svg>
